<svg width="1000" height="1000" viewBox="0 0 1000 1000" xmlns="http://www.w3.org/2000/svg"><defs/><path fill="#ffffff" d="M 0 0 L 1000 0 L 1000 1000 L 0 1000 Z"/><path fill="#777777" transform="matrix(0.7646890967097387 0 0 0.7646890967097387 7.223008801883794 1.5295208713866977)" d="M 494.31482599714 389.25796533185 L 596.01482599714 389.25796533185 L 497.71482599714 290.95796533185 L 399.41482599714 290.95796533185 L 399.41482599714 389.25796533185 L 494.31482599714 487.55796533185 Z"/><path transform="matrix(0.7646890967097387 0 0 0.7646890967097387 7.223008801883794 1.5295208713866977)" d="M 593.01482599714 586.25796533185 L 593.01482599714 484.55796533185 L 494.71482599714 582.85796533185 L 494.71482599714 681.15796533185 L 593.01482599714 681.15796533185 L 691.31482599714 586.25796533185 Z"/><path transform="matrix(0.7646890967097387 0 0 0.7646890967097387 7.223008801883794 1.5295208713866977)" d="M 692.81482599714 289.05796533185 L 692.81482599714 390.75796533185 L 791.11482599714 292.45796533185 L 791.11482599714 194.15796533185 L 692.81482599714 194.15796533185 L 594.51482599714 289.05796533185 Z"/><path fill="#777777" transform="matrix(0.7646890967097387 0 0 0.7646890967097387 7.223008801883794 1.5295208713866977)" d="M 794.51482599714 489.05796533185 L 692.81482599714 489.05796533185 L 791.11482599714 587.35796533185 L 889.41482599714 587.35796533185 L 889.41482599714 489.05796533185 L 794.51482599714 390.75796533185 Z"/><path id="text" transform="matrix(2.2092908570864975 0 0 2.2092908570864975 -16.56968142814873 704.7394713482593)" d="M 120.44977678571 -17.54703125 L 135.35602678571 -17.54703125 C 141.57477678571 -17.54703125 145.80133928571 -16.13296875 148.03571428571 -13.30484375 C 150.27008928571 -10.47671875 151.41852678571 -5.70328125 151.48102678571 1.01546875 L 151.48102678571 2.79671875 C 151.48102678571 7.64046875 151.02790178571 11.45296875 150.12165178571 14.23421875 C 149.21540178571 17.01546875 147.59040178571 19.03109375 145.24665178571 20.28109375 C 150.30915178571 22.34359375 152.84040178571 28.95296875 152.84040178571 40.10921875 L 152.84040178571 41.84359375 C 152.74665178571 50.09359375 151.49665178571 56.00765625 149.09040178571 59.58578125 C 146.68415178571 63.16390625 142.51227678571 64.95296875 136.57477678571 64.95296875 L 120.44977678571 64.95296875 L 120.44977678571 -17.54703125 Z M 143.09040178571 38.70296875 C 143.09040178571 33.39046875 142.65290178571 29.67171875 141.77790178571 27.54671875 C 140.90290178571 25.42171875 139.18415178571 24.35921875 136.62165178571 24.35921875 L 130.15290178571 24.35921875 L 130.15290178571 57.12484375 L 136.10602678571 57.12484375 C 138.85602678571 57.12484375 140.70758928571 56.04671875 141.66071428571 53.89046875 C 142.61383928571 51.73421875 143.09040178571 47.62484375 143.09040178571 41.56234375 L 143.09040178571 38.70296875 Z M 141.87165178571 1.15609375 C 141.87165178571 1.06234375 141.87165178571 0.96859375 141.87165178571 0.87484375 C 141.87165178571 -4.62515625 140.91852678571 -7.87515625 139.01227678571 -8.87515625 C 138.07477678571 -9.37515625 136.71540178571 -9.62515625 134.93415178571 -9.62515625 L 130.15290178571 -9.62515625 L 130.15290178571 16.90609375 L 135.63727678571 16.90609375 C 137.51227678571 16.90609375 138.84821428571 16.60140625 139.64508928571 15.99203125 C 140.44196428571 15.38265625 141.01227678571 14.17171875 141.35602678571 12.35921875 C 141.69977678571 10.54671875 141.87165178571 7.57796875 141.87165178571 3.45296875 L 141.87165178571 1.15609375 Z M 164.32477678571 -17.54703125 L 181.62165178571 -17.54703125 C 186.52790178571 -17.54703125 190.05915178571 -16.53140625 192.21540178571 -14.50015625 C 194.37165178571 -12.46890625 195.66852678571 -9.01578125 196.10602678571 -4.14078125 C 196.29352678571 -2.14078125 196.38727678571 0.97640625 196.38727678571 5.21078125 C 196.38727678571 9.44515625 195.83258928571 12.99984375 194.72321428571 15.87484375 C 193.61383928571 18.74984375 191.65290178571 20.60921875 188.84040178571 21.45296875 C 190.90290178571 21.79671875 192.46540178571 22.88265625 193.52790178571 24.71078125 C 194.59040178571 26.53890625 195.34040178571 29.44515625 195.77790178571 33.42953125 C 196.21540178571 37.41390625 196.43415178571 43.33578125 196.43415178571 51.19515625 C 196.43415178571 59.05453125 196.68415178571 63.64046875 197.18415178571 64.95296875 L 187.52790178571 64.95296875 C 187.02790178571 63.95296875 186.77790178571 54.68734375 186.77790178571 37.15609375 C 186.77790178571 31.24984375 186.19977678571 27.82015625 185.04352678571 26.86703125 C 183.88727678571 25.91390625 182.13727678571 25.43734375 179.79352678571 25.43734375 L 174.02790178571 25.10921875 L 174.02790178571 64.95296875 L 164.32477678571 64.95296875 L 164.32477678571 -17.54703125 Z M 186.77790178571 2.65609375 C 186.77790178571 -3.68765625 186.20758928571 -7.35953125 185.06696428571 -8.35953125 C 183.92633928571 -9.35953125 182.27790178571 -9.85953125 180.12165178571 -9.85953125 L 174.02790178571 -9.85953125 L 174.02790178571 17.98421875 L 180.21540178571 17.98421875 C 182.09040178571 17.98421875 183.46540178571 17.62484375 184.34040178571 16.90609375 C 185.21540178571 16.18734375 185.84040178571 14.81234375 186.21540178571 12.78109375 C 186.59040178571 10.74984375 186.77790178571 7.56234375 186.77790178571 3.21859375 L 186.77790178571 2.65609375 Z M 209.74665178571 -17.54703125 L 219.44977678571 -17.54703125 L 219.44977678571 64.95296875 L 209.74665178571 64.95296875 L 209.74665178571 -17.54703125 Z M 233.65290178571 -17.54703125 L 249.16852678571 -17.54703125 C 255.48102678571 -17.54703125 259.82477678571 -15.60171875 262.19977678571 -11.71109375 C 264.57477678571 -7.82046875 265.76227678571 -2.29703125 265.76227678571 4.85921875 L 265.80915178571 41.09359375 C 265.80915178571 49.56234375 264.51227678571 55.65609375 261.91852678571 59.37484375 C 259.32477678571 63.09359375 254.96540178571 64.95296875 248.84040178571 64.95296875 L 233.65290178571 64.95296875 L 233.65290178571 -17.54703125 Z M 256.10602678571 4.62484375 C 256.10602678571 -0.53140625 255.49665178571 -4.23453125 254.27790178571 -6.48453125 C 253.05915178571 -8.73453125 251.05915178571 -9.85953125 248.27790178571 -9.85953125 L 243.30915178571 -9.85953125 L 243.30915178571 57.12484375 L 248.27790178571 57.12484375 C 250.15290178571 57.12484375 251.62165178571 56.74984375 252.68415178571 55.99984375 C 254.96540178571 54.37484375 256.10602678571 49.90609375 256.10602678571 42.59359375 L 256.10602678571 4.62484375 Z M 277.24665178571 5.79671875 C 277.24665178571 -6.32828125 280.12165178571 -13.85953125 285.87165178571 -16.79703125 C 288.12165178571 -17.92203125 290.59040178571 -18.50015625 293.27790178571 -18.53140625 C 298.30915178571 -18.53140625 301.94977678571 -17.46109375 304.19977678571 -15.32046875 C 306.44977678571 -13.17984375 307.90290178571 -10.35171875 308.55915178571 -6.83609375 C 309.21540178571 -3.32046875 309.54352678571 0.95296875 309.54352678571 5.98421875 L 309.54352678571 12.35921875 L 300.16852678571 12.35921875 L 300.16852678571 1.62484375 C 300.16852678571 -2.59390625 299.73883928571 -5.60953125 298.87946428571 -7.42203125 C 298.02008928571 -9.23453125 296.33258928571 -10.14078125 293.81696428571 -10.14078125 C 291.30133928571 -10.14078125 289.52790178571 -9.00015625 288.49665178571 -6.71890625 C 287.46540178571 -4.43765625 286.94977678571 -0.40640625 286.94977678571 5.37484375 L 286.94977678571 40.06234375 C 286.94977678571 46.65609375 287.40290178571 51.24203125 288.30915178571 53.82015625 C 289.21540178571 56.39828125 291.00446428571 57.68734375 293.67633928571 57.68734375 C 296.34821428571 57.68734375 298.17633928571 56.35921875 299.16071428571 53.70296875 C 300.14508928571 51.04671875 300.63727678571 46.43734375 300.63727678571 39.87484375 L 300.63727678571 29.14046875 L 293.93415178571 29.14046875 L 293.93415178571 21.64046875 L 309.54352678571 21.64046875 L 309.54352678571 64.95296875 L 304.43415178571 64.95296875 L 303.12165178571 58.57796875 C 301.27790178571 63.35921875 297.75446428571 65.74984375 292.55133928571 65.74984375 C 287.34821428571 65.74984375 283.49665178571 63.72640625 280.99665178571 59.67953125 C 278.49665178571 55.63265625 277.24665178571 49.20296875 277.24665178571 40.39046875 L 277.24665178571 5.79671875 Z M 322.34040178571 -17.54703125 L 346.99665178571 -17.54703125 L 346.99665178571 -9.48453125 L 332.04352678571 -9.48453125 L 332.04352678571 18.73421875 L 346.19977678571 18.73421875 L 346.19977678571 26.79671875 L 332.04352678571 26.79671875 L 332.04352678571 56.89046875 L 347.18415178571 56.89046875 L 347.18415178571 64.95296875 L 322.34040178571 64.95296875 L 322.34040178571 -17.54703125 Z"/></svg>